0
SECTION
2
HEADER
9
$INSUNITS
70
1
9
$ACADVER
1
AC1014
9
$HANDSEED
5
FFFF
0
ENDSEC
0
SECTION
2
TABLES
0
TABLE
2
VPORT
5
8
100
AcDbSymbolTable
0
ENDTAB
0
TABLE
2
LTYPE
5
5
100
AcDbSymbolTable
0
LTYPE
5
14
100
AcDbSymbolTableRecord
100
AcDbLinetypeTableRecord
2
BYBLOCK
70
0
0
LTYPE
5
15
100
AcDbSymbolTableRecord
100
AcDbLinetypeTableRecord
2
BYLAYER
70
0
0
ENDTAB
0
TABLE
2
LAYER
5
2
100
AcDbSymbolTable
70
2
0
LAYER
5
50
100
AcDbSymbolTableRecord
100
AcDbLayerTableRecord
2
0
70
0
6
CONTINUOUS
0
ENDTAB
0
TABLE
2
STYLE
5
3
100
AcDbSymbolTable
70
1
0
STYLE
5
11
100
AcDbSymbolTableRecord
100
AcDbTextStyleTableRecord
2
STANDARD
70
0
0
ENDTAB
0
TABLE
2
VIEW
5
6
100
AcDbSymbolTable
70
0
0
ENDTAB
0
TABLE
2
UCS
5
7
100
AcDbSymbolTable
70
0
0
ENDTAB
0
TABLE
2
APPID
5
9
100
AcDbSymbolTable
70
2
0
APPID
5
12
100
AcDbSymbolTableRecord
100
AcDbRegAppTableRecord
2
ACAD
70
0
0
ENDTAB
0
TABLE
2
DIMSTYLE
5
A
100
AcDbSymbolTable
70
1
0
ENDTAB
0
TABLE
2
BLOCK_RECORD
5
1
100
AcDbSymbolTable
70
1
0
BLOCK_RECORD
5
1F
100
AcDbSymbolTableRecord
100
AcDbBlockTableRecord
2
*MODEL_SPACE
0
BLOCK_RECORD
5
1B
100
AcDbSymbolTableRecord
100
AcDbBlockTableRecord
2
*PAPER_SPACE
0
ENDTAB
0
ENDSEC
0
SECTION
2
BLOCKS
0
BLOCK
5
20
100
AcDbEntity
100
AcDbBlockBegin
2
*MODEL_SPACE
0
ENDBLK
5
21
100
AcDbEntity
100
AcDbBlockEnd
0
BLOCK
5
1C
100
AcDbEntity
100
AcDbBlockBegin
2
*PAPER_SPACE
0
ENDBLK
5
1D
100
AcDbEntity
100
AcDbBlockEnd
0
ENDSEC
0
SECTION
2
ENTITIES
0
CIRCLE
5
100
100
AcDbEntity
8
0
100
AcDbCircle
10
0.20000000000000007
20
0.20000000000000007
30
0
40
0.06496062992125988
210
0
220
-0
230
1
0
CIRCLE
5
101
100
AcDbEntity
8
0
100
AcDbCircle
10
2.4999999999999996
20
3
30
0
40
0.06496062992125988
210
0
220
-0
230
1
0
CIRCLE
5
102
100
AcDbEntity
8
0
100
AcDbCircle
10
0.54000000000000004
20
4.2249999999999988
30
0
40
0.06496062992125988
210
0
220
-0
230
1
0
LWPOLYLINE
5
103
100
AcDbEntity
8
0
100
AcDbPolyline
90
24
70
1
43
0.0
10
0.23429133858267731
20
1.820354330708662
42
0.41421356237309637
10
0.33429133858267723
20
1.9203543307086623
10
0.33429133858267746
20
4.3000000000000016
42
-0.41421356237309531
10
0.4342913385826781
20
4.4000000000000021
10
1.5513385826771653
20
4.4000000000000021
42
-0.41421356237309553
10
1.6513385826771658
20
4.3000000000000016
10
1.6513385826771665
20
3.8303937007874036
42
0.41421356237309914
10
1.7513385826771664
20
3.730393700787404
10
2.6307086614173243
20
3.730393700787404
42
-0.41421356237309914
10
2.7307086614173239
20
3.6303937007874039
10
2.7307086614173239
20
0.099999999999999811
42
-0.41421356237309404
10
2.6307086614173247
20
-4.3709567898628207e-17
10
1.1056692913385824
20
1.2020131172122756e-16
42
-0.4142135623730947
10
1.0806692913385827
20
0.024999999999999693
10
1.0806692913385825
20
0.23356299212598433
42
0.41421356237309448
10
1.055669291338583
20
0.25856299212598388
10
0.75433070866141727
20
0.25856299212598244
42
0.41421356237309404
10
0.72933070866141747
20
0.2335629921259843
10
0.72933070866141758
20
0.024999999999999949
42
-0.41421356237309531
10
0.70433070866141767
20
-1.6391087961985577e-17
10
0.099999999999999992
20
-2.1854783949314103e-17
42
-0.41421356237309453
10
0
20
0.099999999999999811
10
2.1854783949314103e-17
20
1.7203543307086624
42
-0.41421356237309509
10
0.099999999999999839
20
1.820354330708662
0
LINE
5
104
100
AcDbEntity
8
0
100
AcDbLine
10
1.5053543307086619
20
2.775393700787403
30
0
11
1.224645669291339
21
2.775393700787403
31
0
0
LINE
5
105
100
AcDbEntity
8
0
100
AcDbLine
10
1.5053543307086621
20
2.2746062992125995
30
0
11
1.5053543307086619
21
2.775393700787403
31
0
0
LWPOLYLINE
5
106
100
AcDbEntity
8
0
100
AcDbPolyline
90
4
70
1
43
0.0
10
1.6170000000000007
20
1.8970552000152165
10
1.2429842519685046
20
1.8970552000152165
10
1.2429842519685046
20
1.7229607118262404
10
1.6170000000000007
20
1.7229607118262404
0
LINE
5
107
100
AcDbEntity
8
0
100
AcDbLine
10
0.53665354330708692
20
2.3315748031496071
30
0
11
0.98064960629921338
21
2.3315748031496071
31
0
0
ARC
5
108
100
AcDbEntity
8
0
100
AcDbCircle
10
0.98064960629921338
20
2.1800984251968516
30
0
40
0.15147637795275604
210
0
220
0
230
1
100
AcDbArc
50
-90
51
90
0
LINE
5
109
100
AcDbEntity
8
0
100
AcDbLine
10
0.98064960629921338
20
2.0286220472440957
30
0
11
0.53665354330708692
21
2.0286220472440957
31
0
0
ARC
5
110
100
AcDbEntity
8
0
100
AcDbCircle
10
0.53665354330708692
20
2.1286220472440958
30
0
40
0.099999999999999992
210
0
220
0
230
1
100
AcDbArc
50
180
51
270
0
LINE
5
111
100
AcDbEntity
8
0
100
AcDbLine
10
0.43665354330708694
20
2.2315748031496074
30
0
11
0.43665354330708694
21
2.1286220472440958
31
0
0
ARC
5
112
100
AcDbEntity
8
0
100
AcDbCircle
10
0.53665354330708692
20
2.2315748031496074
30
0
40
0.099999999999999811
210
0
220
-0
230
1
100
AcDbArc
50
90
51
180
0
ARC
5
113
100
AcDbEntity
8
0
100
AcDbCircle
10
1.3246456692913395
20
2.3746062992126
30
0
40
0.10000000000000087
210
0
220
0
230
1
100
AcDbArc
50
180
51
269.99999999999989
0
LINE
5
114
100
AcDbEntity
8
0
100
AcDbLine
10
1.224645669291339
20
2.775393700787403
30
0
11
1.2246456692913388
21
2.3746062992125996
31
0
0
LINE
5
115
100
AcDbEntity
8
0
100
AcDbLine
10
1.5053543307086621
20
2.2746062992125995
30
0
11
1.3246456692913393
21
2.274606299212599
31
0
0
ENDSEC
0
SECTION
2
OBJECTS
0
DICTIONARY
5
C
100
AcDbDictionary
3
ACAD_GROUP
350
D
3
ACAD_MLINESTYLE
350
17
0
DICTIONARY
5
D
100
AcDbDictionary
0
DICTIONARY
5
1A
330
C
100
AcDbDictionary
0
DICTIONARY
5
17
100
AcDbDictionary
0
ENDSEC
0
EOF
