0
SECTION
2
HEADER
9
$INSUNITS
70
1
9
$ACADVER
1
AC1014
9
$HANDSEED
5
FFFF
0
ENDSEC
0
SECTION
2
TABLES
0
TABLE
2
VPORT
5
8
100
AcDbSymbolTable
0
ENDTAB
0
TABLE
2
LTYPE
5
5
100
AcDbSymbolTable
0
LTYPE
5
14
100
AcDbSymbolTableRecord
100
AcDbLinetypeTableRecord
2
BYBLOCK
70
0
0
LTYPE
5
15
100
AcDbSymbolTableRecord
100
AcDbLinetypeTableRecord
2
BYLAYER
70
0
0
ENDTAB
0
TABLE
2
LAYER
5
2
100
AcDbSymbolTable
70
2
0
LAYER
5
50
100
AcDbSymbolTableRecord
100
AcDbLayerTableRecord
2
0
70
0
6
CONTINUOUS
0
ENDTAB
0
TABLE
2
STYLE
5
3
100
AcDbSymbolTable
70
1
0
STYLE
5
11
100
AcDbSymbolTableRecord
100
AcDbTextStyleTableRecord
2
STANDARD
70
0
0
ENDTAB
0
TABLE
2
VIEW
5
6
100
AcDbSymbolTable
70
0
0
ENDTAB
0
TABLE
2
UCS
5
7
100
AcDbSymbolTable
70
0
0
ENDTAB
0
TABLE
2
APPID
5
9
100
AcDbSymbolTable
70
2
0
APPID
5
12
100
AcDbSymbolTableRecord
100
AcDbRegAppTableRecord
2
ACAD
70
0
0
ENDTAB
0
TABLE
2
DIMSTYLE
5
A
100
AcDbSymbolTable
70
1
0
ENDTAB
0
TABLE
2
BLOCK_RECORD
5
1
100
AcDbSymbolTable
70
1
0
BLOCK_RECORD
5
1F
100
AcDbSymbolTableRecord
100
AcDbBlockTableRecord
2
*MODEL_SPACE
0
BLOCK_RECORD
5
1B
100
AcDbSymbolTableRecord
100
AcDbBlockTableRecord
2
*PAPER_SPACE
0
ENDTAB
0
ENDSEC
0
SECTION
2
BLOCKS
0
BLOCK
5
20
100
AcDbEntity
100
AcDbBlockBegin
2
*MODEL_SPACE
0
ENDBLK
5
21
100
AcDbEntity
100
AcDbBlockEnd
0
BLOCK
5
1C
100
AcDbEntity
100
AcDbBlockBegin
2
*PAPER_SPACE
0
ENDBLK
5
1D
100
AcDbEntity
100
AcDbBlockEnd
0
ENDSEC
0
SECTION
2
ENTITIES
0
LWPOLYLINE
5
100
100
AcDbEntity
8
0
100
AcDbPolyline
90
24
70
1
43
0.0
10
0.4342913385826781
20
4.4000000000000021
42
0.41421356237309531
10
0.33429133858267746
20
4.3000000000000016
10
0.33429133858267723
20
1.9203543307086623
42
-0.41421356237309637
10
0.23429133858267731
20
1.820354330708662
10
0.099999999999999839
20
1.820354330708662
42
0.41421356237309509
10
2.1854783949314103e-17
20
1.7203543307086624
10
0
20
0.099999999999999811
42
0.41421356237309453
10
0.099999999999999992
20
-2.1854783949314341e-17
10
0.70433070866141767
20
-1.6391087961985577e-17
42
0.41421356237309531
10
0.72933070866141758
20
0.024999999999999949
10
0.72933070866141925
20
0.2335629921259843
42
-0.41421356237309404
10
0.75433070866141727
20
0.25856299212598244
10
1.055669291338583
20
0.25856299212598388
42
-0.41421356237309448
10
1.0806692913385825
20
0.23356299212598433
10
1.0806692913385827
20
0.024999999999999693
42
0.41421356237309465
10
1.1056692913385824
20
1.2020131172122754e-16
10
2.6307086614173247
20
-4.3709567898628207e-17
42
0.41421356237309404
10
2.7307086614173239
20
0.099999999999999811
10
2.7307086614173239
20
3.6303937007874039
42
0.41421356237309914
10
2.6307086614173243
20
3.730393700787404
10
1.7513385826771664
20
3.730393700787404
42
-0.41421356237309914
10
1.6513385826771665
20
3.8303937007874036
10
1.6513385826771658
20
4.3000000000000016
42
0.41421356237309553
10
1.5513385826771653
20
4.4000000000000021
0
ARC
5
101
100
AcDbEntity
8
0
100
AcDbCircle
10
0.53665354330708692
20
2.2315748031496074
30
0
40
0.099999999999999811
210
0
220
-0
230
1
100
AcDbArc
50
90
51
180
0
LINE
5
102
100
AcDbEntity
8
0
100
AcDbLine
10
0.43665354330708711
20
2.2315748031496074
30
0
11
0.43665354330708694
21
2.1286220472440958
31
0
0
ARC
5
103
100
AcDbEntity
8
0
100
AcDbCircle
10
0.53665354330708692
20
2.1286220472440958
30
0
40
0.099999999999999992
210
0
220
0
230
1
100
AcDbArc
50
180
51
270
0
LINE
5
104
100
AcDbEntity
8
0
100
AcDbLine
10
0.98064960629921338
20
2.0286220472440957
30
0
11
0.53665354330708692
21
2.0286220472440957
31
0
0
LINE
5
105
100
AcDbEntity
8
0
100
AcDbLine
10
0.53665354330708692
20
2.3315748031496071
30
0
11
0.98064960629921338
21
2.3315748031496071
31
0
0
ARC
5
106
100
AcDbEntity
8
0
100
AcDbCircle
10
0.98064960629921338
20
2.1800984251968516
30
0
40
0.15147637795275604
210
0
220
0
230
1
100
AcDbArc
50
-90
51
90
0
LINE
5
107
100
AcDbEntity
8
0
100
AcDbLine
10
1.224645669291339
20
2.775393700787403
30
0
11
1.2246456692913388
21
2.3746062992125996
31
0
0
LINE
5
108
100
AcDbEntity
8
0
100
AcDbLine
10
1.5053543307086619
20
2.775393700787403
30
0
11
1.224645669291339
21
2.775393700787403
31
0
0
ARC
5
109
100
AcDbEntity
8
0
100
AcDbCircle
10
1.3246456692913395
20
2.3746062992126
30
0
40
0.10000000000000087
210
0
220
0
230
1
100
AcDbArc
50
180
51
269.99999999999989
0
LINE
5
110
100
AcDbEntity
8
0
100
AcDbLine
10
1.5053543307086621
20
2.2746062992125995
30
0
11
1.3246456692913393
21
2.274606299212599
31
0
0
LINE
5
111
100
AcDbEntity
8
0
100
AcDbLine
10
1.5053543307086621
20
2.2746062992125995
30
0
11
1.5053543307086619
21
2.775393700787403
31
0
0
LWPOLYLINE
5
112
100
AcDbEntity
8
0
100
AcDbPolyline
90
4
70
1
43
0.0
10
1.6170000000000007
20
1.8970552000152165
10
1.2429842519685046
20
1.8970552000152165
10
1.2429842519685046
20
1.7229607118262404
10
1.6170000000000007
20
1.7229607118262404
0
CIRCLE
5
113
100
AcDbEntity
8
0
100
AcDbCircle
10
0.54000000000000004
20
4.2249999999999988
30
0
40
0.12499999999999999
210
0
220
0
230
1
0
CIRCLE
5
114
100
AcDbEntity
8
0
100
AcDbCircle
10
2.4999999999999996
20
3
30
0
40
0.12499999999999999
210
0
220
0
230
1
0
CIRCLE
5
115
100
AcDbEntity
8
0
100
AcDbCircle
10
0.20000000000000007
20
0.20000000000000007
30
0
40
0.12499999999999999
210
0
220
0
230
1
0
LINE
5
116
100
AcDbEntity
8
0
100
AcDbLine
10
0.16500000000000006
20
4.2700000000000022
30
0
11
1.1649999999999998
21
4.2700000000000022
31
0
0
LINE
5
117
100
AcDbEntity
8
0
100
AcDbLine
10
0.16500000000000006
20
4.1700000000000017
30
0
11
1.1649999999999998
21
4.1700000000000017
31
0
0
LINE
5
118
100
AcDbEntity
8
0
100
AcDbLine
10
0.16500000000000006
20
4.0700000000000021
30
0
11
1.1649999999999998
21
4.0700000000000021
31
0
0
LINE
5
119
100
AcDbEntity
8
0
100
AcDbLine
10
0.16500000000000006
20
3.970000000000002
30
0
11
1.1649999999999998
21
3.970000000000002
31
0
0
LINE
5
120
100
AcDbEntity
8
0
100
AcDbLine
10
0.16500000000000006
20
3.8700000000000014
30
0
11
1.1649999999999998
21
3.8700000000000014
31
0
0
LINE
5
121
100
AcDbEntity
8
0
100
AcDbLine
10
0.16500000000000006
20
3.7700000000000009
30
0
11
1.1649999999999998
21
3.7700000000000009
31
0
0
LINE
5
122
100
AcDbEntity
8
0
100
AcDbLine
10
0.16500000000000006
20
3.6700000000000017
30
0
11
1.1649999999999998
21
3.6700000000000017
31
0
0
LINE
5
123
100
AcDbEntity
8
0
100
AcDbLine
10
0.16500000000000006
20
3.5700000000000012
30
0
11
1.1649999999999998
21
3.5700000000000012
31
0
0
LINE
5
124
100
AcDbEntity
8
0
100
AcDbLine
10
0.17000000000000004
20
3.3250000000000015
30
0
11
1.1649999999999998
21
3.3250000000000015
31
0
0
LINE
5
125
100
AcDbEntity
8
0
100
AcDbLine
10
0.17000000000000004
20
3.2250000000000019
30
0
11
1.1649999999999998
21
3.2250000000000019
31
0
0
LINE
5
126
100
AcDbEntity
8
0
100
AcDbLine
10
0.17000000000000004
20
3.1250000000000013
30
0
11
1.1649999999999998
21
3.1250000000000013
31
0
0
LINE
5
127
100
AcDbEntity
8
0
100
AcDbLine
10
0.17000000000000004
20
3.0250000000000008
30
0
11
1.1649999999999998
21
3.0250000000000008
31
0
0
LINE
5
128
100
AcDbEntity
8
0
100
AcDbLine
10
0.17000000000000004
20
2.9250000000000016
30
0
11
1.165
21
2.9250000000000016
31
0
0
LINE
5
129
100
AcDbEntity
8
0
100
AcDbLine
10
0.17000000000000004
20
2.8250000000000011
30
0
11
1.165
21
2.8250000000000011
31
0
0
LINE
5
130
100
AcDbEntity
8
0
100
AcDbLine
10
0.17000000000000004
20
2.725000000000001
30
0
11
1.165
21
2.725000000000001
31
0
0
LINE
5
131
100
AcDbEntity
8
0
100
AcDbLine
10
0.17000000000000004
20
2.6250000000000009
30
0
11
1.165
21
2.6250000000000009
31
0
0
LINE
5
132
100
AcDbEntity
8
0
100
AcDbLine
10
0.17000000000000004
20
2.430000000000001
30
0
11
1.165
21
2.430000000000001
31
0
0
LINE
5
133
100
AcDbEntity
8
0
100
AcDbLine
10
0.17000000000000004
20
2.330000000000001
30
0
11
1.165
21
2.330000000000001
31
0
0
LINE
5
134
100
AcDbEntity
8
0
100
AcDbLine
10
0.17000000000000004
20
2.2300000000000013
30
0
11
1.1650000000000003
21
2.2300000000000013
31
0
0
LINE
5
135
100
AcDbEntity
8
0
100
AcDbLine
10
1.8950000000000009
20
3.9500000000000024
30
0
11
1.8950000000000009
21
3.5500000000000016
31
0
0
LINE
5
136
100
AcDbEntity
8
0
100
AcDbLine
10
2.2200000000000006
20
3.9500000000000024
30
0
11
2.2200000000000006
21
3.5500000000000016
31
0
0
LINE
5
137
100
AcDbEntity
8
0
100
AcDbLine
10
2.5450000000000013
20
3.9500000000000024
30
0
11
2.5450000000000013
21
3.5500000000000016
31
0
0
LINE
5
138
100
AcDbEntity
8
0
100
AcDbLine
10
2.9000000000000008
20
3.5500000000000016
30
0
11
1.8950000000000009
21
3.5500000000000016
31
0
0
LINE
5
139
100
AcDbEntity
8
0
100
AcDbLine
10
2.9000000000000008
20
3.4500000000000011
30
0
11
1.8950000000000009
21
3.4500000000000011
31
0
0
LINE
5
140
100
AcDbEntity
8
0
100
AcDbLine
10
2.9000000000000008
20
3.3500000000000014
30
0
11
1.8950000000000009
21
3.3500000000000014
31
0
0
LINE
5
141
100
AcDbEntity
8
0
100
AcDbLine
10
2.9000000000000008
20
3.2500000000000013
30
0
11
1.8950000000000009
21
3.2500000000000013
31
0
0
LINE
5
142
100
AcDbEntity
8
0
100
AcDbLine
10
2.9000000000000008
20
3.1500000000000017
30
0
11
1.8950000000000009
21
3.1500000000000017
31
0
0
LINE
5
143
100
AcDbEntity
8
0
100
AcDbLine
10
2.9000000000000008
20
3.0500000000000012
30
0
11
1.8950000000000009
21
3.0500000000000012
31
0
0
LINE
5
144
100
AcDbEntity
8
0
100
AcDbLine
10
2.9000000000000008
20
2.9500000000000015
30
0
11
1.8950000000000009
21
2.9500000000000015
31
0
0
LINE
5
145
100
AcDbEntity
8
0
100
AcDbLine
10
2.9000000000000008
20
2.8500000000000014
30
0
11
1.8950000000000009
21
2.8500000000000014
31
0
0
LINE
5
146
100
AcDbEntity
8
0
100
AcDbLine
10
2.9000000000000008
20
2.6500000000000012
30
0
11
1.8950000000000009
21
2.6500000000000012
31
0
0
LINE
5
147
100
AcDbEntity
8
0
100
AcDbLine
10
2.9000000000000008
20
2.5500000000000012
30
0
11
1.8950000000000009
21
2.5500000000000012
31
0
0
LINE
5
148
100
AcDbEntity
8
0
100
AcDbLine
10
2.9000000000000008
20
2.4500000000000006
30
0
11
1.8950000000000009
21
2.4500000000000006
31
0
0
LINE
5
149
100
AcDbEntity
8
0
100
AcDbLine
10
2.9000000000000008
20
2.350000000000001
30
0
11
1.8950000000000009
21
2.350000000000001
31
0
0
LINE
5
150
100
AcDbEntity
8
0
100
AcDbLine
10
2.9000000000000008
20
2.2500000000000009
30
0
11
1.8950000000000009
21
2.2500000000000009
31
0
0
LINE
5
151
100
AcDbEntity
8
0
100
AcDbLine
10
2.9000000000000008
20
2.1500000000000008
30
0
11
1.8950000000000009
21
2.1500000000000008
31
0
0
LINE
5
152
100
AcDbEntity
8
0
100
AcDbLine
10
2.9000000000000008
20
2.0500000000000012
30
0
11
1.8950000000000009
21
2.0500000000000012
31
0
0
LINE
5
153
100
AcDbEntity
8
0
100
AcDbLine
10
2.9000000000000008
20
1.9500000000000006
30
0
11
1.8950000000000009
21
1.9500000000000006
31
0
0
LINE
5
154
100
AcDbEntity
8
0
100
AcDbLine
10
2.9000000000000008
20
1.7500000000000007
30
0
11
1.8950000000000005
21
1.7500000000000007
31
0
0
LINE
5
155
100
AcDbEntity
8
0
100
AcDbLine
10
2.9000000000000008
20
1.6500000000000006
30
0
11
1.8950000000000005
21
1.6500000000000006
31
0
0
LINE
5
156
100
AcDbEntity
8
0
100
AcDbLine
10
2.9000000000000008
20
1.5500000000000005
30
0
11
1.8950000000000005
21
1.5500000000000007
31
0
0
LINE
5
157
100
AcDbEntity
8
0
100
AcDbLine
10
2.9000000000000008
20
1.4500000000000004
30
0
11
1.8950000000000005
21
1.4500000000000006
31
0
0
LINE
5
158
100
AcDbEntity
8
0
100
AcDbLine
10
2.9000000000000008
20
1.3500000000000005
30
0
11
1.8950000000000005
21
1.3500000000000008
31
0
0
LINE
5
159
100
AcDbEntity
8
0
100
AcDbLine
10
2.9000000000000008
20
1.2500000000000004
30
0
11
1.8950000000000005
21
1.2500000000000007
31
0
0
LINE
5
160
100
AcDbEntity
8
0
100
AcDbLine
10
2.9000000000000008
20
1.1500000000000006
30
0
11
1.8950000000000005
21
1.1500000000000008
31
0
0
LINE
5
161
100
AcDbEntity
8
0
100
AcDbLine
10
2.9000000000000008
20
1.0500000000000005
30
0
11
1.8950000000000005
21
1.0500000000000007
31
0
0
LINE
5
162
100
AcDbEntity
8
0
100
AcDbLine
10
2.9000000000000008
20
0.85000000000000042
30
0
11
1.8950000000000005
21
0.85000000000000053
31
0
0
LINE
5
163
100
AcDbEntity
8
0
100
AcDbLine
10
2.9000000000000008
20
0.75000000000000033
30
0
11
1.8950000000000005
21
0.75000000000000044
31
0
0
LINE
5
164
100
AcDbEntity
8
0
100
AcDbLine
10
2.9000000000000008
20
0.65000000000000036
30
0
11
1.8950000000000005
21
0.65000000000000036
31
0
0
LINE
5
165
100
AcDbEntity
8
0
100
AcDbLine
10
2.9000000000000008
20
0.55000000000000027
30
0
11
1.8950000000000005
21
0.55000000000000038
31
0
0
LINE
5
166
100
AcDbEntity
8
0
100
AcDbLine
10
2.9000000000000008
20
0.45000000000000012
30
0
11
1.8950000000000005
21
0.45000000000000023
31
0
0
LINE
5
167
100
AcDbEntity
8
0
100
AcDbLine
10
2.9000000000000008
20
0.3500000000000002
30
0
11
1.8950000000000005
21
0.35000000000000026
31
0
0
LINE
5
168
100
AcDbEntity
8
0
100
AcDbLine
10
2.9000000000000008
20
0.25000000000000011
30
0
11
1.8950000000000005
21
0.25000000000000022
31
0
0
LINE
5
169
100
AcDbEntity
8
0
100
AcDbLine
10
2.9000000000000008
20
0.15000000000000002
30
0
11
1.8950000000000005
21
0.15000000000000002
31
0
0
ENDSEC
0
SECTION
2
OBJECTS
0
DICTIONARY
5
C
100
AcDbDictionary
3
ACAD_GROUP
350
D
3
ACAD_MLINESTYLE
350
17
0
DICTIONARY
5
D
100
AcDbDictionary
0
DICTIONARY
5
1A
330
C
100
AcDbDictionary
0
DICTIONARY
5
17
100
AcDbDictionary
0
ENDSEC
0
EOF
