999
"DXF R12 Output" (www.mydxf.blogspot.com)
 0 
SECTION
 2 
HEADER
 9 
$ACADVER
 1 
AC1009
 9 
$EXTMIN
 10 
 0 
 20 
 0 
 9 
$EXTMAX
 10 
 8.5 
 20 
 11 
 0 
ENDSEC
 0 
SECTION
 2 
ENTITIES
0
LINE
8
Layer 1
10
0.846666
20
298.874000
11
-0.846666
21
297.180000
0
LINE
8
Layer 1
10
0.000000
20
299.438000
11
0.000000
21
296.616000
0
LINE
8
Layer 1
10
2.257780
20
296.898000
11
1.128890
21
295.769110
0
LINE
8
Layer 1
10
1.693330
20
297.463000
11
0.564440
21
296.334110
0
LINE
8
Layer 1
10
1.128890
20
298.027000
11
0.000000
21
296.898110
0
LINE
8
Alignment
10
39.000800
20
270.793000
11
37.963984
21
270.586765
0
LINE
8
Alignment
10
37.963984
20
270.586765
11
37.085014
21
269.999456
0
LINE
8
Alignment
10
37.085014
20
269.999456
11
36.497705
21
269.120486
0
LINE
8
Alignment
10
36.497705
20
269.120486
11
36.291470
21
268.083670
0
LINE
8
Alignment
10
36.291470
20
268.083670
11
36.291500
21
203.611000
0
LINE
8
Alignment
10
36.291500
20
203.611000
11
36.085265
21
202.574184
0
LINE
8
Alignment
10
36.085265
20
202.574184
11
35.497956
21
201.695214
0
LINE
8
Alignment
10
35.497956
20
201.695214
11
34.618986
21
201.107905
0
LINE
8
Alignment
10
34.618986
20
201.107905
11
33.582170
21
200.901670
0
LINE
8
Alignment
10
33.582170
20
200.901670
11
29.943800
21
200.901000
0
LINE
8
Alignment
10
29.943800
20
200.901000
11
28.906984
21
200.694765
0
LINE
8
Alignment
10
28.906984
20
200.694765
11
28.028014
21
200.107456
0
LINE
8
Alignment
10
28.028014
20
200.107456
11
27.440705
21
199.228486
0
LINE
8
Alignment
10
27.440705
20
199.228486
11
27.234470
21
198.191670
0
LINE
8
Alignment
10
27.234470
20
198.191670
11
27.234400
21
154.291000
0
LINE
8
Alignment
10
27.234400
20
154.291000
11
27.440635
21
153.254184
0
LINE
8
Alignment
10
27.440635
20
153.254184
11
28.027944
21
152.375214
0
LINE
8
Alignment
10
28.027944
20
152.375214
11
28.906914
21
151.787905
0
LINE
8
Alignment
10
28.906914
20
151.787905
11
29.943730
21
151.581670
0
LINE
8
Alignment
10
29.943730
20
151.581670
11
46.317100
21
151.582000
0
LINE
8
Alignment
10
46.317100
20
151.582000
11
46.796047
21
151.780386
0
LINE
8
Alignment
10
46.796047
20
151.780386
11
46.994433
21
152.259333
0
LINE
8
Alignment
10
46.994433
20
152.259333
11
46.994400
21
157.910000
0
LINE
8
Alignment
10
46.994400
20
157.910000
11
47.192786
21
158.388947
0
LINE
8
Alignment
10
47.192786
20
158.388947
11
47.671733
21
158.587333
0
LINE
8
Alignment
10
47.671733
20
158.587333
11
55.836000
21
158.587000
0
LINE
8
Alignment
10
55.836000
20
158.587000
11
56.314947
21
158.388614
0
LINE
8
Alignment
10
56.314947
20
158.388614
11
56.513333
21
157.909667
0
LINE
8
Alignment
10
56.513333
20
157.909667
11
56.513300
21
152.259000
0
LINE
8
Alignment
10
56.513300
20
152.259000
11
56.711685
21
151.780054
0
LINE
8
Alignment
10
56.711685
20
151.780054
11
57.190630
21
151.581667
0
LINE
8
Alignment
10
57.190630
20
151.581667
11
98.509000
21
151.582000
0
LINE
8
Alignment
10
98.509000
20
151.582000
11
99.563594
21
151.794913
0
LINE
8
Alignment
10
99.563594
20
151.794913
11
100.424786
21
152.375544
0
LINE
8
Alignment
10
100.424786
20
152.375544
11
101.005417
21
153.236736
0
LINE
8
Alignment
10
101.005417
20
153.236736
11
101.218330
21
154.291330
0
LINE
8
Alignment
10
101.218330
20
154.291330
11
101.218000
21
249.941000
0
LINE
8
Alignment
10
101.218000
20
249.941000
11
101.011765
21
250.977816
0
LINE
8
Alignment
10
101.011765
20
250.977816
11
100.424456
21
251.856786
0
LINE
8
Alignment
10
100.424456
20
251.856786
11
99.545486
21
252.444095
0
LINE
8
Alignment
10
99.545486
20
252.444095
11
98.508670
21
252.650330
0
LINE
8
Alignment
10
98.508670
20
252.650330
11
74.684000
21
252.651000
0
LINE
8
Alignment
10
74.684000
20
252.651000
11
73.647184
21
252.857235
0
LINE
8
Alignment
10
73.647184
20
252.857235
11
72.768214
21
253.444544
0
LINE
8
Alignment
10
72.768214
20
253.444544
11
72.180905
21
254.323514
0
LINE
8
Alignment
10
72.180905
20
254.323514
11
71.974670
21
255.360330
0
LINE
8
Alignment
10
71.974670
20
255.360330
11
71.974700
21
268.083000
0
LINE
8
Alignment
10
71.974700
20
268.083000
11
71.768465
21
269.119816
0
LINE
8
Alignment
10
71.768465
20
269.119816
11
71.181156
21
269.998786
0
LINE
8
Alignment
10
71.181156
20
269.998786
11
70.302186
21
270.586095
0
LINE
8
Alignment
10
70.302186
20
270.586095
11
69.265370
21
270.792330
0
LINE
8
Alignment
10
69.265370
20
270.792330
11
39.000800
21
270.793000
0
LINE
8
Alignment
10
41.774100
20
214.752000
11
40.737284
21
214.545765
0
LINE
8
Alignment
10
40.737284
20
214.545765
11
39.858314
21
213.958456
0
LINE
8
Alignment
10
39.858314
20
213.958456
11
39.271005
21
213.079486
0
LINE
8
Alignment
10
39.271005
20
213.079486
11
39.064770
21
212.042670
0
LINE
8
Alignment
10
39.064800
20
212.043000
11
39.064800
21
209.253000
0
LINE
8
Alignment
10
39.064800
20
209.253000
11
39.271035
21
208.216184
0
LINE
8
Alignment
10
39.271035
20
208.216184
11
39.858344
21
207.337214
0
LINE
8
Alignment
10
39.858344
20
207.337214
11
40.737314
21
206.749905
0
LINE
8
Alignment
10
40.737314
20
206.749905
11
41.774130
21
206.543670
0
LINE
8
Alignment
10
53.803500
20
206.544000
11
41.774100
21
206.544000
0
LINE
8
Alignment
10
41.774100
20
214.752000
11
53.803500
21
214.752000
0
LINE
8
Alignment
10
53.803500
20
206.544000
11
54.874306
21
206.686062
0
LINE
8
Alignment
10
54.874306
20
206.686062
11
55.855500
21
207.093832
0
LINE
8
Alignment
10
55.855500
20
207.093832
11
56.699236
21
207.739686
0
LINE
8
Alignment
10
56.699236
20
207.739686
11
57.357668
21
208.596000
0
LINE
8
Alignment
10
57.357668
20
208.596000
11
57.770042
21
209.594376
0
LINE
8
Alignment
10
57.770042
20
209.594376
11
57.907500
21
210.648000
0
LINE
8
Alignment
10
57.907500
20
210.648000
11
57.770042
21
211.701624
0
LINE
8
Alignment
10
57.770042
20
211.701624
11
57.357668
21
212.700000
0
LINE
8
Alignment
10
57.357668
20
212.700000
11
56.699236
21
213.556314
0
LINE
8
Alignment
10
56.699236
20
213.556314
11
55.855500
21
214.202168
0
LINE
8
Alignment
10
55.855500
20
214.202168
11
54.874306
21
214.609938
0
LINE
8
Alignment
10
54.874306
20
214.609938
11
53.803500
21
214.752000
0
LINE
8
Alignment
10
60.414100
20
226.777000
11
60.414100
21
215.918000
0
LINE
8
Alignment
10
68.019500
20
226.777000
11
60.414100
21
226.777000
0
LINE
8
Alignment
10
60.414100
20
215.918000
11
60.620335
21
214.881184
0
LINE
8
Alignment
10
60.620335
20
214.881184
11
61.207644
21
214.002214
0
LINE
8
Alignment
10
61.207644
20
214.002214
11
62.086614
21
213.414905
0
LINE
8
Alignment
10
62.086614
20
213.414905
11
63.123430
21
213.208670
0
LINE
8
Alignment
10
68.019500
20
213.209000
11
63.123500
21
213.209000
0
LINE
8
Alignment
10
68.019500
20
213.209000
11
68.019500
21
226.777000
0
LINE
8
Alignment
10
71.044300
20
202.980000
11
60.911000
21
202.980000
0
LINE
8
Alignment
10
60.911000
20
202.980000
11
60.911000
21
198.263000
0
LINE
8
Alignment
10
60.911000
20
198.263000
11
71.044300
21
198.263000
0
LINE
8
Alignment
10
71.044300
20
198.263000
11
71.044300
21
202.980000
0
LINE
8
Alignment
10
45.251500
20
266.051000
11
45.134266
21
266.934639
0
LINE
8
Alignment
10
45.134266
20
266.934639
11
44.797769
21
267.744330
0
LINE
8
Alignment
10
44.797769
20
267.744330
11
44.264804
21
268.440589
0
LINE
8
Alignment
10
44.264804
20
268.440589
11
43.558165
21
268.983934
0
LINE
8
Alignment
10
43.558165
20
268.983934
11
42.734295
21
269.324228
0
LINE
8
Alignment
10
42.734295
20
269.324228
11
41.864835
21
269.437660
0
LINE
8
Alignment
10
41.864835
20
269.437660
11
40.995375
21
269.324228
0
LINE
8
Alignment
10
40.995375
20
269.324228
11
40.171505
21
268.983934
0
LINE
8
Alignment
10
40.171505
20
268.983934
11
39.464866
21
268.440589
0
LINE
8
Alignment
10
39.464866
20
268.440589
11
38.931901
21
267.744330
0
LINE
8
Alignment
10
38.931901
20
267.744330
11
38.595406
21
266.934639
0
LINE
8
Alignment
10
38.595406
20
266.934639
11
38.478175
21
266.051000
0
LINE
8
Alignment
10
38.478175
20
266.051000
11
38.595407
21
265.167361
0
LINE
8
Alignment
10
38.595407
20
265.167361
11
38.931904
21
264.357670
0
LINE
8
Alignment
10
38.931904
20
264.357670
11
39.464869
21
263.661411
0
LINE
8
Alignment
10
39.464869
20
263.661411
11
40.171507
21
263.118066
0
LINE
8
Alignment
10
40.171507
20
263.118066
11
40.995377
21
262.777772
0
LINE
8
Alignment
10
40.995377
20
262.777772
11
41.864838
21
262.664340
0
LINE
8
Alignment
10
41.864838
20
262.664340
11
42.734298
21
262.777772
0
LINE
8
Alignment
10
42.734298
20
262.777772
11
43.558167
21
263.118066
0
LINE
8
Alignment
10
43.558167
20
263.118066
11
44.264806
21
263.661411
0
LINE
8
Alignment
10
44.264806
20
263.661411
11
44.797771
21
264.357670
0
LINE
8
Alignment
10
44.797771
20
264.357670
11
45.134267
21
265.167361
0
LINE
8
Alignment
10
45.134267
20
265.167361
11
45.251497
21
266.051000
0
LINE
8
Alignment
10
45.251497
20
266.051000
11
45.251500
21
266.051000
0
LINE
8
Alignment
10
98.354400
20
232.862000
11
98.237166
21
233.745639
0
LINE
8
Alignment
10
98.237166
20
233.745639
11
97.900669
21
234.555330
0
LINE
8
Alignment
10
97.900669
20
234.555330
11
97.367704
21
235.251589
0
LINE
8
Alignment
10
97.367704
20
235.251589
11
96.661065
21
235.794934
0
LINE
8
Alignment
10
96.661065
20
235.794934
11
95.837195
21
236.135228
0
LINE
8
Alignment
10
95.837195
20
236.135228
11
94.967735
21
236.248660
0
LINE
8
Alignment
10
94.967735
20
236.248660
11
94.098275
21
236.135228
0
LINE
8
Alignment
10
94.098275
20
236.135228
11
93.274405
21
235.794934
0
LINE
8
Alignment
10
93.274405
20
235.794934
11
92.567766
21
235.251589
0
LINE
8
Alignment
10
92.567766
20
235.251589
11
92.034801
21
234.555330
0
LINE
8
Alignment
10
92.034801
20
234.555330
11
91.698306
21
233.745639
0
LINE
8
Alignment
10
91.698306
20
233.745639
11
91.581075
21
232.862000
0
LINE
8
Alignment
10
91.581075
20
232.862000
11
91.698307
21
231.978361
0
LINE
8
Alignment
10
91.698307
20
231.978361
11
92.034804
21
231.168670
0
LINE
8
Alignment
10
92.034804
20
231.168670
11
92.567769
21
230.472411
0
LINE
8
Alignment
10
92.567769
20
230.472411
11
93.274408
21
229.929066
0
LINE
8
Alignment
10
93.274408
20
229.929066
11
94.098277
21
229.588772
0
LINE
8
Alignment
10
94.098277
20
229.588772
11
94.967737
21
229.475340
0
LINE
8
Alignment
10
94.967737
20
229.475340
11
95.837198
21
229.588772
0
LINE
8
Alignment
10
95.837198
20
229.588772
11
96.661068
21
229.929066
0
LINE
8
Alignment
10
96.661068
20
229.929066
11
97.367706
21
230.472411
0
LINE
8
Alignment
10
97.367706
20
230.472411
11
97.900671
21
231.168670
0
LINE
8
Alignment
10
97.900671
20
231.168670
11
98.237167
21
231.978361
0
LINE
8
Alignment
10
98.237167
20
231.978361
11
98.354398
21
232.862000
0
LINE
8
Alignment
10
98.354398
20
232.862000
11
98.354400
21
232.862000
0
LINE
8
Alignment
10
36.039700
20
157.001000
11
35.922466
21
157.884639
0
LINE
8
Alignment
10
35.922466
20
157.884639
11
35.585969
21
158.694330
0
LINE
8
Alignment
10
35.585969
20
158.694330
11
35.053004
21
159.390589
0
LINE
8
Alignment
10
35.053004
20
159.390589
11
34.346365
21
159.933934
0
LINE
8
Alignment
10
34.346365
20
159.933934
11
33.522495
21
160.274228
0
LINE
8
Alignment
10
33.522495
20
160.274228
11
32.653035
21
160.387660
0
LINE
8
Alignment
10
32.653035
20
160.387660
11
31.783575
21
160.274228
0
LINE
8
Alignment
10
31.783575
20
160.274228
11
30.959705
21
159.933934
0
LINE
8
Alignment
10
30.959705
20
159.933934
11
30.253066
21
159.390589
0
LINE
8
Alignment
10
30.253066
20
159.390589
11
29.720101
21
158.694330
0
LINE
8
Alignment
10
29.720101
20
158.694330
11
29.383606
21
157.884639
0
LINE
8
Alignment
10
29.383606
20
157.884639
11
29.266375
21
157.001000
0
LINE
8
Alignment
10
29.266375
20
157.001000
11
29.383607
21
156.117361
0
LINE
8
Alignment
10
29.383607
20
156.117361
11
29.720104
21
155.307670
0
LINE
8
Alignment
10
29.720104
20
155.307670
11
30.253069
21
154.611411
0
LINE
8
Alignment
10
30.253069
20
154.611411
11
30.959708
21
154.068066
0
LINE
8
Alignment
10
30.959708
20
154.068066
11
31.783577
21
153.727772
0
LINE
8
Alignment
10
31.783577
20
153.727772
11
32.653038
21
153.614340
0
LINE
8
Alignment
10
32.653038
20
153.614340
11
33.522498
21
153.727772
0
LINE
8
Alignment
10
33.522498
20
153.727772
11
34.346368
21
154.068066
0
LINE
8
Alignment
10
34.346368
20
154.068066
11
35.053006
21
154.611411
0
LINE
8
Alignment
10
35.053006
20
154.611411
11
35.585971
21
155.307670
0
LINE
8
Alignment
10
35.585971
20
155.307670
11
35.922467
21
156.117361
0
LINE
8
Alignment
10
35.922467
20
156.117361
11
36.039698
21
157.001000
0
LINE
8
Alignment
10
36.039698
20
157.001000
11
36.039700
21
157.001000
0
LINE
8
Alignment
10
31.704800
20
267.270000
11
58.798100
21
267.270000
0
LINE
8
Alignment
10
31.704800
20
264.561000
11
58.798100
21
264.561000
0
LINE
8
Alignment
10
31.704800
20
261.852000
11
58.798100
21
261.852000
0
LINE
8
Alignment
10
31.704800
20
259.142000
11
58.798100
21
259.142000
0
LINE
8
Alignment
10
31.704800
20
256.433000
11
58.798100
21
256.433000
0
LINE
8
Alignment
10
31.704800
20
253.724000
11
58.798100
21
253.724000
0
LINE
8
Alignment
10
31.704800
20
251.014000
11
58.798100
21
251.014000
0
LINE
8
Alignment
10
31.704800
20
248.305000
11
58.798100
21
248.305000
0
LINE
8
Alignment
10
31.840300
20
241.667000
11
58.798100
21
241.667000
0
LINE
8
Alignment
10
31.840300
20
238.958000
11
58.798100
21
238.958000
0
LINE
8
Alignment
10
31.840300
20
236.249000
11
58.798100
21
236.249000
0
LINE
8
Alignment
10
31.840300
20
233.539000
11
58.798100
21
233.539000
0
LINE
8
Alignment
10
31.840300
20
230.830000
11
58.798100
21
230.830000
0
LINE
8
Alignment
10
31.840300
20
228.121000
11
58.798100
21
228.121000
0
LINE
8
Alignment
10
31.840300
20
225.411000
11
58.798100
21
225.411000
0
LINE
8
Alignment
10
31.840300
20
222.702000
11
58.798100
21
222.702000
0
LINE
8
Alignment
10
31.840300
20
217.419000
11
58.798100
21
217.419000
0
LINE
8
Alignment
10
31.840300
20
214.709000
11
58.798100
21
214.709000
0
LINE
8
Alignment
10
31.840300
20
212.000000
11
58.798100
21
212.000000
0
LINE
8
Alignment
10
78.576200
20
258.601000
11
78.576200
21
247.763000
0
LINE
8
Alignment
10
87.381600
20
258.601000
11
87.381600
21
247.763000
0
LINE
8
Alignment
10
96.186900
20
258.601000
11
96.186900
21
247.763000
0
LINE
8
Alignment
10
105.805000
20
247.763000
11
78.576200
21
247.763000
0
LINE
8
Alignment
10
105.805000
20
245.054000
11
78.576200
21
245.054000
0
LINE
8
Alignment
10
105.805000
20
242.345000
11
78.576200
21
242.345000
0
LINE
8
Alignment
10
105.805000
20
239.635000
11
78.576200
21
239.635000
0
LINE
8
Alignment
10
105.805000
20
236.926000
11
78.576200
21
236.926000
0
LINE
8
Alignment
10
105.805000
20
234.217000
11
78.576200
21
234.217000
0
LINE
8
Alignment
10
105.805000
20
231.507000
11
78.576200
21
231.507000
0
LINE
8
Alignment
10
105.805000
20
228.798000
11
78.576200
21
228.798000
0
LINE
8
Alignment
10
105.805000
20
223.379000
11
78.576200
21
223.379000
0
LINE
8
Alignment
10
105.805000
20
220.670000
11
78.576200
21
220.670000
0
LINE
8
Alignment
10
105.805000
20
217.961000
11
78.576200
21
217.961000
0
LINE
8
Alignment
10
105.805000
20
215.251000
11
78.576200
21
215.251000
0
LINE
8
Alignment
10
105.805000
20
212.542000
11
78.576200
21
212.542000
0
LINE
8
Alignment
10
105.805000
20
209.833000
11
78.576200
21
209.833000
0
LINE
8
Alignment
10
105.805000
20
207.123000
11
78.576200
21
207.123000
0
LINE
8
Alignment
10
105.805000
20
204.414000
11
78.576200
21
204.414000
0
LINE
8
Alignment
10
105.805000
20
198.995000
11
78.576200
21
198.995000
0
LINE
8
Alignment
10
105.805000
20
196.286000
11
78.576200
21
196.286000
0
LINE
8
Alignment
10
105.805000
20
193.577000
11
78.576200
21
193.577000
0
LINE
8
Alignment
10
105.805000
20
190.867000
11
78.576200
21
190.867000
0
LINE
8
Alignment
10
105.805000
20
188.158000
11
78.576200
21
188.158000
0
LINE
8
Alignment
10
105.805000
20
185.449000
11
78.576200
21
185.449000
0
LINE
8
Alignment
10
105.805000
20
182.739000
11
78.576200
21
182.739000
0
LINE
8
Alignment
10
105.805000
20
180.030000
11
78.576200
21
180.030000
0
LINE
8
Alignment
10
105.805000
20
174.611000
11
78.576200
21
174.611000
0
LINE
8
Alignment
10
105.805000
20
171.902000
11
78.576200
21
171.902000
0
LINE
8
Alignment
10
105.805000
20
169.193000
11
78.576200
21
169.193000
0
LINE
8
Alignment
10
105.805000
20
166.483000
11
78.576200
21
166.483000
0
LINE
8
Alignment
10
105.805000
20
163.774000
11
78.576200
21
163.774000
0
LINE
8
Alignment
10
105.805000
20
161.065000
11
78.576200
21
161.065000
0
LINE
8
Alignment
10
105.805000
20
158.355000
11
78.576200
21
158.355000
0
LINE
8
Alignment
10
105.805000
20
155.646000
11
78.576200
21
155.646000
0
LINE
8
Labels
10
87.111600
20
165.129000
11
102.337400
21
165.129000
0
LINE
8
Labels
10
83.210900
20
154.291000
11
102.337300
21
154.291000
0
LINE
8
Labels
10
99.435900
20
158.925000
11
98.121500
21
158.925000
0
LINE
8
Labels
10
98.121500
20
158.925000
11
98.121500
21
155.083000
0
LINE
8
Labels
10
98.121500
20
155.083000
11
99.435900
21
155.083000
0
LINE
8
Labels
10
87.111600
20
175.934000
11
102.337400
21
175.934000
0
LINE
8
Labels
10
99.435900
20
169.730000
11
98.121500
21
169.730000
0
LINE
8
Labels
10
98.121500
20
169.730000
11
98.121500
21
165.888000
0
LINE
8
Labels
10
98.121500
20
165.888000
11
99.435900
21
165.888000
0
LINE
8
Labels
10
87.111600
20
189.491000
11
102.337400
21
189.491000
0
LINE
8
Labels
10
87.114200
20
178.653000
11
102.337300
21
178.653000
0
LINE
8
Labels
10
99.435900
20
183.287000
11
98.121500
21
183.287000
0
LINE
8
Labels
10
98.121500
20
183.287000
11
98.121500
21
179.445000
0
LINE
8
Labels
10
98.121500
20
179.445000
11
99.435900
21
179.445000
0
LINE
8
Labels
10
83.210900
20
200.296000
11
102.337000
21
200.296000
0
LINE
8
Labels
10
99.435900
20
194.092000
11
98.121500
21
194.092000
0
LINE
8
Labels
10
98.121500
20
194.092000
11
98.121500
21
190.250000
0
LINE
8
Labels
10
98.121500
20
190.250000
11
99.435900
21
190.250000
0
LINE
8
Labels
10
83.208400
20
189.120000
11
83.208400
21
200.292000
0
LINE
8
Labels
10
83.208400
20
154.348000
11
83.208400
21
165.285000
0
LINE
8
Labels
10
87.111600
20
213.823000
11
102.337400
21
213.823000
0
LINE
8
Labels
10
83.210900
20
202.986000
11
102.337300
21
202.986000
0
LINE
8
Labels
10
87.111600
20
224.628000
11
102.337400
21
224.628000
0
LINE
8
Labels
10
87.111600
20
238.185000
11
102.337400
21
238.185000
0
LINE
8
Labels
10
87.114200
20
227.348000
11
102.337300
21
227.348000
0
LINE
8
Labels
10
83.208400
20
203.042000
11
83.208400
21
205.564110
0
LINE
8
Labels
10
83.208400
20
240.133000
11
83.208400
21
242.809000
0
LINE
8
Labels
10
83.208400
20
242.809000
11
96.913000
21
242.809000
0
LINE
8
Labels
10
96.913000
20
242.809000
11
96.913000
21
248.990000
0
LINE
8
Labels
10
96.913000
20
248.990000
11
102.337000
21
248.990000
0
LINE
8
Labels
10
37.942400
20
222.157000
11
39.256800
21
222.157000
0
LINE
8
Labels
10
39.256800
20
222.157000
11
39.256800
21
225.998000
0
LINE
8
Labels
10
39.256800
20
225.998000
11
37.942400
21
225.998000
0
LINE
8
Labels
10
37.942400
20
227.557000
11
39.256800
21
227.557000
0
LINE
8
Labels
10
39.256800
20
227.557000
11
39.256800
21
231.398000
0
LINE
8
Labels
10
39.256800
20
231.398000
11
37.942400
21
231.398000
0
LINE
8
Labels
10
53.168200
20
232.168000
11
33.686500
21
232.168000
0
LINE
8
Labels
10
53.168200
20
242.973000
11
33.914500
21
242.973000
0
LINE
8
Labels
10
37.942400
20
232.966000
11
39.256800
21
232.966000
0
LINE
8
Labels
10
39.256800
20
232.966000
11
39.256800
21
236.808000
0
LINE
8
Labels
10
39.256800
20
236.808000
11
37.942400
21
236.808000
0
LINE
8
Labels
10
37.942400
20
238.366000
11
39.256800
21
238.366000
0
LINE
8
Labels
10
39.256800
20
238.366000
11
39.256800
21
242.208000
0
LINE
8
Labels
10
39.256800
20
242.208000
11
37.942400
21
242.208000
0
LINE
8
Labels
10
37.942400
20
247.796000
11
39.256800
21
247.796000
0
LINE
8
Labels
10
39.256800
20
247.796000
11
39.256800
21
251.637000
0
LINE
8
Labels
10
39.256800
20
251.637000
11
37.942400
21
251.637000
0
LINE
8
Labels
10
37.942400
20
253.196000
11
39.256800
21
253.196000
0
LINE
8
Labels
10
39.256800
20
253.196000
11
39.256800
21
257.037000
0
LINE
8
Labels
10
39.256800
20
257.037000
11
37.942400
21
257.037000
0
LINE
8
Labels
10
53.168200
20
257.807000
11
34.902500
21
257.807000
0
LINE
8
Labels
10
53.153100
20
246.970000
11
34.280200
21
246.970000
0
LINE
8
Labels
10
37.942400
20
258.605000
11
39.256800
21
258.605000
0
LINE
8
Labels
10
39.256800
20
258.605000
11
39.256800
21
262.447000
0
LINE
8
Labels
10
39.256800
20
262.447000
11
37.942400
21
262.447000
0
LINE
8
Labels
10
37.942400
20
264.005000
11
39.256800
21
264.005000
0
LINE
8
Labels
10
39.256800
20
264.005000
11
39.256800
21
267.847000
0
LINE
8
Labels
10
39.256800
20
267.847000
11
37.942400
21
267.847000
0
LINE
8
Labels
10
57.068800
20
221.331000
11
57.068800
21
229.399000
0
LINE
8
Labels
10
57.068800
20
221.330370
11
33.306400
21
221.330370
0
LINE
8
Labels
10
57.051000
20
268.612000
11
57.051000
21
260.939000
0
LINE
8
Labels
10
57.051000
20
268.611990
11
34.540400
21
268.611990
0
LINE
8
Labels
10
33.686400
20
217.392000
11
37.942400
21
217.392000
0
LINE
8
Labels
10
37.942400
20
217.392000
11
37.942400
21
197.041000
0
LINE
8
Labels
10
37.942400
20
214.732000
11
33.686400
21
214.732000
0
LINE
8
Labels
10
37.942400
20
212.044000
11
33.686400
21
212.044000
0
LINE
8
Labels
10
33.686400
20
217.392000
11
37.942400
21
217.392000
0
LINE
8
Labels
10
42.198400
20
199.728000
11
37.942400
21
199.728000
0
LINE
8
Labels
10
42.198400
20
197.041000
11
37.942400
21
197.041000
0
LINE
8
Labels
10
37.942400
20
202.388000
11
42.198400
21
202.388000
0
LINE
8
Labels
10
44.053900
20
204.663000
11
51.763400
21
204.663000
0
LINE
8
Labels
10
51.763400
20
204.663000
11
51.763400
21
203.812000
0
LINE
8
Labels
10
44.053900
20
194.851000
11
51.763400
21
194.851000
0
LINE
8
Labels
10
51.763400
20
194.851000
11
51.763400
21
195.702000
0
LINE
8
Layer 1
10
84.147100
20
202.633000
11
93.835260
21
208.806370
0
LINE
8
Layer 1
10
93.835260
20
208.806370
11
93.835200
21
195.807000
0
LINE
8
Layer 1
10
93.835200
20
195.807000
11
84.147040
21
190.975810
0
LINE
8
Layer 1
10
84.147040
20
190.975810
11
84.147100
21
202.633000
0
LINE
8
Layer 1
10
63.878200
20
210.069000
11
63.878200
21
196.795000
0
LINE
8
Layer 1
10
63.878200
20
196.795000
11
84.147000
21
190.975390
0
LINE
8
Layer 1
10
84.147000
20
190.975390
11
84.147100
21
202.633000
0
LINE
8
Layer 1
10
84.147100
20
202.633000
11
63.878200
21
210.069000
0
LINE
8
Layer 1
10
63.878200
20
210.069000
11
72.388620
21
218.203350
0
LINE
8
Layer 1
10
72.388620
20
218.203350
11
93.835220
21
208.805990
0
LINE
8
Layer 1
10
93.835220
20
208.805990
11
84.147060
21
202.632620
0
LINE
8
Layer 1
10
84.147060
20
202.632620
11
63.878200
21
210.069000
0
LINE
8
Layer 1
10
63.878200
20
196.795000
11
72.388620
21
203.160840
0
LINE
8
Layer 1
10
72.388620
20
203.160840
11
93.835220
21
195.806590
0
LINE
8
Layer 1
10
93.835220
20
195.806590
11
84.147060
21
190.975400
0
LINE
8
Layer 1
10
84.147060
20
190.975400
11
63.878200
21
196.795000
0
LINE
8
Layer 1
10
72.388600
20
218.204000
11
72.388600
21
203.161000
0
LINE
8
Layer 1
10
72.388600
20
203.161000
11
93.835200
21
195.806750
0
LINE
8
Layer 1
10
93.835200
20
195.806750
11
93.835200
21
208.806000
0
LINE
8
Layer 1
10
93.835200
20
208.806000
11
72.388600
21
218.204000
0
LINE
8
Layer 1
10
63.878200
20
210.069000
11
72.388620
21
218.203350
0
LINE
8
Layer 1
10
72.388620
20
218.203350
11
72.388600
21
203.161000
0
LINE
8
Layer 1
10
72.388600
20
203.161000
11
63.878180
21
196.795160
0
LINE
8
Layer 1
10
63.878180
20
196.795160
11
63.878200
21
210.069000
0
LINE
8
Labels
10
69.723100
20
267.702000
11
69.723100
21
268.836000
0
LINE
8
Labels
10
69.723100
20
268.836000
11
61.004800
21
268.836000
0
LINE
8
Labels
10
61.004800
20
268.836000
11
61.004800
21
242.899000
0
LINE
8
Labels
10
61.004800
20
242.899000
11
76.239700
21
242.899000
0
LINE
8
Labels
10
76.333800
20
249.257000
11
89.064700
21
249.257000
0
LINE
8
Labels
10
89.064700
20
249.257000
11
89.064700
21
254.670000
0
LINE
8
Labels
10
76.861800
20
249.313000
11
76.861800
21
254.422000
0
LINE
8
Labels
10
76.420400
20
244.991000
11
92.789200
21
244.991000
0
LINE
8
Labels
10
92.789200
20
244.991000
11
92.794421
21
250.409250
0
LINE
8
Labels
10
92.794421
20
250.409250
11
102.337271
21
250.411226
0
LINE
8
Labels
10
92.794500
20
249.257000
11
92.794500
21
254.618180
0
LINE
8
Outline
10
39.000700
20
272.486000
11
38.110986
21
272.396905
0
LINE
8
Outline
10
38.110986
20
272.396905
11
37.283434
21
272.141224
0
LINE
8
Outline
10
37.283434
20
272.141224
11
36.535446
21
271.736360
0
LINE
8
Outline
10
36.535446
20
271.736360
11
35.884429
21
271.199717
0
LINE
8
Outline
10
35.884429
20
271.199717
11
35.347786
21
270.548701
0
LINE
8
Outline
10
35.347786
20
270.548701
11
34.942922
21
269.800715
0
LINE
8
Outline
10
34.942922
20
269.800715
11
34.687242
21
268.973163
0
LINE
8
Outline
10
34.687242
20
268.973163
11
34.598150
21
268.083450
0
LINE
8
Outline
10
34.598150
20
268.083450
11
34.598100
21
203.611000
0
LINE
8
Outline
10
34.598100
20
203.611000
11
34.517086
21
203.219113
0
LINE
8
Outline
10
34.517086
20
203.219113
11
34.297404
21
202.895807
0
LINE
8
Outline
10
34.297404
20
202.895807
11
33.974098
21
202.676125
0
LINE
8
Outline
10
33.974098
20
202.676125
11
33.582210
21
202.595110
0
LINE
8
Outline
10
33.582210
20
202.595110
11
29.943600
21
202.595000
0
LINE
8
Outline
10
29.943600
20
202.595000
11
29.053887
21
202.505905
0
LINE
8
Outline
10
29.053887
20
202.505905
11
28.226335
21
202.250224
0
LINE
8
Outline
10
28.226335
20
202.250224
11
27.478349
21
201.845360
0
LINE
8
Outline
10
27.478349
20
201.845360
11
26.827332
21
201.308718
0
LINE
8
Outline
10
26.827332
20
201.308718
11
26.290690
21
200.657701
0
LINE
8
Outline
10
26.290690
20
200.657701
11
25.885826
21
199.909715
0
LINE
8
Outline
10
25.885826
20
199.909715
11
25.630145
21
199.082163
0
LINE
8
Outline
10
25.630145
20
199.082163
11
25.541050
21
198.192450
0
LINE
8
Outline
10
25.541050
20
198.192450
11
25.541100
21
154.291000
0
LINE
8
Outline
10
25.541100
20
154.291000
11
25.630195
21
153.401287
0
LINE
8
Outline
10
25.630195
20
153.401287
11
25.885878
21
152.573735
0
LINE
8
Outline
10
25.885878
20
152.573735
11
26.290743
21
151.825749
0
LINE
8
Outline
10
26.290743
20
151.825749
11
26.827386
21
151.174733
0
LINE
8
Outline
10
26.827386
20
151.174733
11
27.478403
21
150.638090
0
LINE
8
Outline
10
27.478403
20
150.638090
11
28.226389
21
150.233226
0
LINE
8
Outline
10
28.226389
20
150.233226
11
29.053940
21
149.977545
0
LINE
8
Outline
10
29.053940
20
149.977545
11
29.943650
21
149.888450
0
LINE
8
Outline
10
29.943650
20
149.888450
11
46.316900
21
149.889000
0
LINE
8
Outline
10
46.316900
20
149.889000
11
47.243439
21
150.074067
0
LINE
8
Outline
10
47.243439
20
150.074067
11
47.996606
21
150.580075
0
LINE
8
Outline
10
47.996606
20
150.580075
11
48.502613
21
151.333238
0
LINE
8
Outline
10
48.502613
20
151.333238
11
48.687670
21
152.259770
0
LINE
8
Outline
10
48.687670
20
152.259770
11
48.687700
21
156.894000
0
LINE
8
Outline
10
48.687700
20
156.894000
11
54.820000
21
156.894000
0
LINE
8
Outline
10
54.820000
20
156.894000
11
54.820000
21
152.259000
0
LINE
8
Outline
10
54.820000
20
152.259000
11
55.005067
21
151.332464
0
LINE
8
Outline
10
55.005067
20
151.332464
11
55.511075
21
150.579301
0
LINE
8
Outline
10
55.511075
20
150.579301
11
56.264238
21
150.073295
0
LINE
8
Outline
10
56.264238
20
150.073295
11
57.190770
21
149.888230
0
LINE
8
Outline
10
57.190770
20
149.888230
11
98.509300
21
149.889000
0
LINE
8
Outline
10
98.509300
20
149.889000
11
99.399013
21
149.978095
0
LINE
8
Outline
10
99.399013
20
149.978095
11
100.226565
21
150.233776
0
LINE
8
Outline
10
100.226565
20
150.233776
11
100.974551
21
150.638640
0
LINE
8
Outline
10
100.974551
20
150.638640
11
101.625568
21
151.175283
0
LINE
8
Outline
10
101.625568
20
151.175283
11
102.162210
21
151.826299
0
LINE
8
Outline
10
102.162210
20
151.826299
11
102.567074
21
152.574285
0
LINE
8
Outline
10
102.567074
20
152.574285
11
102.822755
21
153.401837
0
LINE
8
Outline
10
102.822755
20
153.401837
11
102.911850
21
154.291550
0
LINE
8
Outline
10
102.911850
20
154.291550
11
102.912000
21
249.941000
0
LINE
8
Outline
10
102.912000
20
249.941000
11
102.822922
21
250.830737
0
LINE
8
Outline
10
102.822922
20
250.830737
11
102.567283
21
251.658351
0
LINE
8
Outline
10
102.567283
20
251.658351
11
102.162471
21
252.406425
0
LINE
8
Outline
10
102.162471
20
252.406425
11
101.625875
21
253.057543
0
LINE
8
Outline
10
101.625875
20
253.057543
11
100.974886
21
253.594286
0
LINE
8
Outline
10
100.974886
20
253.594286
11
100.226892
21
253.999238
0
LINE
8
Outline
10
100.226892
20
253.999238
11
99.399284
21
254.254982
0
LINE
8
Outline
10
99.399284
20
254.254982
11
98.509450
21
254.344100
0
LINE
8
Outline
10
98.509450
20
254.344100
11
74.684100
21
254.344000
0
LINE
8
Outline
10
74.684100
20
254.344000
11
74.292210
21
254.425014
0
LINE
8
Outline
10
74.292210
20
254.425014
11
73.968904
21
254.644696
0
LINE
8
Outline
10
73.968904
20
254.644696
11
73.749224
21
254.968002
0
LINE
8
Outline
10
73.749224
20
254.968002
11
73.668210
21
255.359890
0
LINE
8
Outline
10
73.668210
20
255.359890
11
73.668200
21
268.083000
0
LINE
8
Outline
10
73.668200
20
268.083000
11
73.579082
21
268.973025
0
LINE
8
Outline
10
73.579082
20
268.973025
11
73.323341
21
269.800766
0
LINE
8
Outline
10
73.323341
20
269.800766
11
72.918391
21
270.548842
0
LINE
8
Outline
10
72.918391
20
270.548842
11
72.381650
21
271.199875
0
LINE
8
Outline
10
72.381650
20
271.199875
11
71.730534
21
271.736486
0
LINE
8
Outline
10
71.730534
20
271.736486
11
70.982459
21
272.141297
0
LINE
8
Outline
10
70.982459
20
272.141297
11
70.154843
21
272.396928
0
LINE
8
Outline
10
70.154843
20
272.396928
11
69.265100
21
272.486000
0
LINE
8
Outline
10
69.265100
20
272.486000
11
39.000700
21
272.486000
 0 
ENDSEC
 0 
EOF